<?xml version="1.0" encoding="UTF-8" standalone="no"?>
<!-- Created with Inkscape (http://www.inkscape.org/) -->

<svg
   width="96mm"
   height="96mm"
   viewBox="0 0 96 96"
   version="1.1"
   id="svg1"
   xml:space="preserve"
   sodipodi:docname="logo-ADLaM-light-theme-v1.3.svg"
   inkscape:version="1.4.3 (0d15f75, 2025-12-25)"
   inkscape:export-filename="logo-ADLaM-light-theme-48.png"
   inkscape:export-xdpi="12.7"
   inkscape:export-ydpi="12.7"
   xmlns:inkscape="http://www.inkscape.org/namespaces/inkscape"
   xmlns:sodipodi="http://sodipodi.sourceforge.net/DTD/sodipodi-0.dtd"
   xmlns:xlink="http://www.w3.org/1999/xlink"
   xmlns="http://www.w3.org/2000/svg"
   xmlns:svg="http://www.w3.org/2000/svg"><sodipodi:namedview
     id="namedview1"
     pagecolor="#ffffff"
     bordercolor="#000000"
     borderopacity="0.25"
     inkscape:showpageshadow="2"
     inkscape:pageopacity="0.0"
     inkscape:pagecheckerboard="true"
     inkscape:deskcolor="#d1d1d1"
     inkscape:document-units="mm"
     showgrid="true"
     inkscape:zoom="2.3772407"
     inkscape:cx="183.40591"
     inkscape:cy="177.72706"
     inkscape:window-width="1434"
     inkscape:window-height="992"
     inkscape:window-x="55"
     inkscape:window-y="34"
     inkscape:window-maximized="0"
     inkscape:current-layer="layer1"><inkscape:grid
       id="grid1"
       units="mm"
       originx="0"
       originy="0"
       spacingx="5.9999998"
       spacingy="5.9999998"
       empcolor="#0099e5"
       empopacity="0.30196078"
       color="#0099e5"
       opacity="0.14901961"
       empspacing="5"
       enabled="true"
       visible="true" /></sodipodi:namedview><defs
     id="defs1"><inkscape:path-effect
       effect="fillet_chamfer"
       id="path-effect8"
       is_visible="true"
       lpeversion="1"
       nodesatellites_param="F,0,0,1,0,0,0,1 @ F,0,0,1,0,0,0,1 @ F,0,0,1,0,0,0,1 @ F,0,0,1,0,0,0,1 @ F,0,0,1,0,0,0,1 @ F,0,0,1,0,0,0,1 @ F,0,0,1,0,0,0,1 @ F,0,0,1,0,0,0,1"
       radius="0"
       unit="px"
       method="auto"
       mode="F"
       chamfer_steps="1"
       flexible="false"
       use_knot_distance="true"
       apply_no_radius="true"
       apply_with_radius="true"
       only_selected="false"
       hide_knots="false" /><linearGradient
       id="linearGradient7"
       inkscape:collect="always"><stop
         style="stop-color:#0009ff;stop-opacity:1;"
         offset="0"
         id="stop7" /><stop
         style="stop-color:#00ffcf;stop-opacity:0.50467288;"
         offset="1"
         id="stop8" /></linearGradient><linearGradient
       inkscape:collect="always"
       xlink:href="#linearGradient7"
       id="linearGradient8"
       x1="59.487427"
       y1="39.658281"
       x2="84.824661"
       y2="39.658281"
       gradientUnits="userSpaceOnUse"
       gradientTransform="matrix(1.1247367,0,0,0.97948502,-7.4202624,0.28684233)" /></defs><g
     inkscape:label="Layer 1"
     inkscape:groupmode="layer"
     id="layer1"><path
       id="Vector"
       d="M 32.436275,87.094607 H 63.563726 M 48,51.10028 v 25.61851 m 0,0 12.969771,-12.969771 M 48,76.71879 35.030229,63.749019"
       stroke="#000000"
       stroke-width="5.18791"
       stroke-linecap="round"
       stroke-linejoin="round"
       style="fill:none;stroke:#000000;stroke-opacity:1"
       sodipodi:nodetypes="cccccccc" /><text
       xml:space="preserve"
       style="font-size:3.175px;writing-mode:lr-tb;direction:ltr;fill:#ff00ff;stroke:#b300ff;stroke-width:2.64583"
       x="76.521652"
       y="12.710376"
       id="text1"><tspan
         sodipodi:role="line"
         id="tspan1"
         style="stroke-width:2.64583" /></text><text
       xml:space="preserve"
       style="font-size:3.175px;writing-mode:lr-tb;direction:ltr;fill:#000000;stroke:none;stroke-width:2.64583;fill-opacity:1"
       x="76.58448"
       y="18.40328"
       id="text2"><tspan
         sodipodi:role="line"
         id="tspan2"
         style="stroke-width:2.64583;fill:#000000;fill-opacity:1;stroke:none" /></text><path
       style="fill:url(#linearGradient8);fill-opacity:1;stroke:none;stroke-width:2.77706"
       id="rect7"
       width="28.497717"
       height="33.532597"
       x="59.487427"
       y="22.365236"
       inkscape:path-effect="#path-effect8"
       sodipodi:type="rect"
       d="m 63.52582,22.365236 h 20.42093 c 2.23727,0 4.038394,1.801124 4.038394,4.038394 v 25.455809 c 0,2.23727 -1.801124,4.038394 -4.038394,4.038394 H 63.52582 c -2.23727,0 -4.038393,-1.801124 -4.038393,-4.038394 V 26.40363 c 0,-2.23727 1.801123,-4.038394 4.038393,-4.038394 z"
       ry="4.0383935"
       transform="translate(-1.5802409,0.52674698)" /><text
       xml:space="preserve"
       style="font-style:normal;font-variant:normal;font-weight:normal;font-stretch:normal;font-size:52.2111px;font-family:'ADLaM Display';-inkscape-font-specification:'ADLaM Display, Normal';font-variant-ligatures:normal;font-variant-caps:normal;font-variant-numeric:normal;font-variant-east-asian:normal;writing-mode:lr-tb;direction:ltr;fill:#000000;fill-opacity:1;stroke:none;stroke-width:2.64583"
       x="5.3483438"
       y="43.420418"
       id="text3"><tspan
         sodipodi:role="line"
         id="tspan3"
         style="font-style:normal;font-variant:normal;font-weight:normal;font-stretch:normal;font-size:52.2111px;font-family:'ADLaM Display';-inkscape-font-specification:'ADLaM Display, Normal';font-variant-ligatures:normal;font-variant-caps:normal;font-variant-numeric:normal;font-variant-east-asian:normal;stroke-width:2.64583;fill:#000000;fill-opacity:1"
         x="5.3483438"
         y="43.420418">AI</tspan></text><text
       xml:space="preserve"
       style="font-size:3.175px;writing-mode:lr-tb;direction:ltr;fill:#000000;fill-opacity:1;stroke:none;stroke-width:2.64583"
       x="83.782372"
       y="24.414467"
       id="text4"><tspan
         sodipodi:role="line"
         id="tspan4"
         style="stroke-width:2.64583"
         x="83.782372"
         y="24.414467" /></text><text
       xml:space="preserve"
       style="font-size:3.175px;writing-mode:lr-tb;direction:ltr;fill:#000000;fill-opacity:1;stroke:none;stroke-width:2.64583"
       x="84.632545"
       y="27.205608"
       id="text5"><tspan
         sodipodi:role="line"
         id="tspan5"
         style="stroke-width:2.64583"
         x="84.632545"
         y="27.205608" /></text><g
       id="g1"
       style="fill:#ffffff;fill-opacity:1;stroke:#ffffff;stroke-opacity:1"><path
         d="m 62.928459,44.446899 c -0.1558,0.960469 -0.316262,1.775062 -0.481108,2.443779 -0.222424,0.919641 -0.530453,1.650952 -0.923975,2.194181 -0.389243,0.543229 -0.938946,0.973316 -1.648994,1.289844 -0.552934,0.249819 -1.248434,0.477439 -2.086695,0.683162 0.838261,0.205723 1.533761,0.433344 2.086695,0.683163 0.710048,0.316528 1.259751,0.746614 1.648994,1.289844 0.393522,0.54323 0.701551,1.27454 0.923975,2.194181 0.164847,0.668717 0.325308,1.483306 0.481108,2.443778 0.154951,-0.960472 0.31317,-1.775061 0.474906,-2.443778 0.226702,-0.919641 0.534731,-1.650951 0.923975,-2.194181 0.39352,-0.54323 0.945148,-0.973316 1.655196,-1.289844 0.552933,-0.249819 1.24895,-0.47744 2.087211,-0.683163 -0.838261,-0.205724 -1.534276,-0.433343 -2.087211,-0.683162 -0.710048,-0.316528 -1.261675,-0.746615 -1.655196,-1.289844 -0.389242,-0.543229 -0.697272,-1.27454 -0.923975,-2.194181 -0.161735,-0.668717 -0.319955,-1.48331 -0.474906,-2.443779 z"
         style="fill:#ffffff;stroke-width:0.68;stroke:#ffffff;stroke-opacity:1;stroke-dasharray:none;fill-opacity:1"
         id="path6" /><path
         d="m 65.466288,28.785323 c -0.146791,0.711067 -0.297404,1.307223 -0.452169,1.789038 -0.230979,0.705772 -0.526432,1.247264 -0.885734,1.623674 -0.363578,0.376412 -0.838199,0.662619 -1.424202,0.859379 -0.41891,0.142672 -0.9239,0.284262 -1.515153,0.42478 0.591253,0.141791 1.096243,0.282561 1.515153,0.422196 0.586003,0.19676 1.060624,0.483484 1.424202,0.859896 0.359302,0.376411 0.654755,0.915462 0.885734,1.616956 0.154765,0.475975 0.305378,1.072367 0.452169,1.789555 0.146792,-0.717188 0.297404,-1.31358 0.452169,-1.789555 0.23098,-0.701494 0.526433,-1.240545 0.885734,-1.616956 0.359301,-0.376412 0.833921,-0.663136 1.424203,-0.859896 0.418909,-0.139635 0.9239,-0.280405 1.515153,-0.422196 -0.591253,-0.140518 -1.096244,-0.282108 -1.515153,-0.42478 -0.590282,-0.19676 -1.064902,-0.482967 -1.424203,-0.859379 -0.359301,-0.37641 -0.654754,-0.917902 -0.885734,-1.623674 -0.154765,-0.481815 -0.305377,-1.077971 -0.452169,-1.789038 z"
         style="fill:#ffffff;stroke-width:0.68;stroke:#ffffff;stroke-opacity:1;stroke-dasharray:none;fill-opacity:1"
         id="path5" /><path
         d="m 80.204407,29.062826 c -0.216714,1.61478 -0.429726,3.027654 -0.638721,4.2385 -0.273755,1.56125 -0.592435,2.861647 -0.956014,3.901054 -0.367855,1.039409 -0.829899,1.888413 -1.385962,2.547132 -0.560339,0.658718 -1.268423,1.193406 -2.123901,1.604036 -0.855481,0.41063 -1.907397,0.769998 -3.156397,1.077971 -1.008934,0.248778 -2.185632,0.512718 -3.5295,0.792199 1.343868,0.27948 2.520566,0.543939 3.5295,0.792717 1.249,0.307973 2.300916,0.66734 3.156397,1.07797 0.855478,0.414908 1.563562,0.951519 2.123901,1.610238 0.556063,0.654442 1.018107,1.501523 1.385962,2.54093 0.363579,1.039409 0.682259,2.339804 0.956014,3.901054 0.208995,1.210845 0.422007,2.624764 0.638721,4.242118 0.217458,-1.617354 0.432092,-3.031273 0.644405,-4.242118 0.269477,-1.56125 0.588159,-2.861645 0.956014,-3.901054 0.363579,-1.039407 0.825622,-1.886488 1.385962,-2.54093 0.556062,-0.658719 1.263628,-1.19533 2.123384,-1.610238 0.85548,-0.41063 1.910354,-0.769997 3.163632,-1.07797 1.012388,-0.248778 2.187966,-0.513237 3.526916,-0.792717 -1.33895,-0.279481 -2.514528,-0.543421 -3.526916,-0.792199 -1.253278,-0.307973 -2.308152,-0.667341 -3.163632,-1.077971 -0.859756,-0.41063 -1.567322,-0.945318 -2.123384,-1.604036 -0.56034,-0.658719 -1.022383,-1.507723 -1.385962,-2.547132 -0.367855,-1.039407 -0.686537,-2.339804 -0.956014,-3.901054 -0.212313,-1.210846 -0.426947,-2.62372 -0.644405,-4.2385 z"
         style="fill:#ffffff;stroke-width:0.68;stroke:#ffffff;stroke-opacity:1;stroke-dasharray:none;fill-opacity:1"
         id="path4" /></g><path
       d="M 79.860732,59.203203 79.264034,55.193142 Q 78.891901,52.671614 78.462022,50.945684 78.025729,49.226171 77.384118,48.096937 76.742509,46.967705 75.741597,46.249101 74.740686,45.530498 73.245736,45.042876 71.744369,44.555251 69.58856,44.086875 l -2.68193,-0.577449 v -0.564615 l 2.68193,-0.583866 q 2.155809,-0.468375 3.657176,-0.955998 1.49495,-0.481206 2.495861,-1.206227 1.000912,-0.718602 1.642521,-1.847836 0.641611,-1.122815 1.077904,-2.848748 0.429879,-1.719513 0.802012,-4.247455 l 0.596698,-4.01006 h 0.692939 l 0.590282,4.01006 q 0.378549,2.527942 0.808428,4.247455 0.429876,1.725933 1.071488,2.848748 0.641609,1.129234 1.648937,1.847836 1.000911,0.725021 2.495861,1.206227 1.494951,0.487623 3.657176,0.955998 l 2.681926,0.583866 v 0.564615 l -2.681926,0.577449 q -2.162225,0.468376 -3.657176,0.956001 -1.49495,0.487622 -2.495861,1.206225 -1.007328,0.718604 -1.648937,1.847836 -0.641612,1.129234 -1.071488,2.848747 -0.429879,1.72593 -0.808428,4.247458 l -0.590282,4.010061 h -0.692939 m -17.278551,0 -0.436295,-2.290548 Q 61.84433,55.347128 61.446531,54.352633 61.048734,53.358136 60.36221,52.780687 59.669271,52.203238 58.463047,51.888852 l -2.239219,-0.583866 v -0.500455 l 2.239219,-0.577449 q 1.206224,-0.314389 1.899163,-0.891838 0.686524,-0.577449 1.084321,-1.57836 0.397799,-0.994495 0.699355,-2.560022 l 0.436295,-2.284132 h 0.692939 l 0.436293,2.284132 q 0.295142,1.565527 0.699355,2.560022 0.397799,1.000911 1.097154,1.57836 0.692938,0.577449 1.886333,0.891838 l 2.239218,0.577449 v 0.500455 l -2.239218,0.583866 q -1.193395,0.314386 -1.886333,0.891835 -0.699355,0.577449 -1.097154,1.571946 -0.404213,0.994495 -0.699355,2.560022 l -0.436293,2.290548 h -0.692939 m 0.173241,-0.391382 q 0.314389,-2.207139 0.648025,-3.586599 0.340053,-1.379461 0.923919,-2.194306 0.590281,-0.814845 1.655353,-1.289637 1.065071,-0.481206 2.835914,-0.853339 v 0.340053 Q 67.04779,50.855858 65.982716,50.374652 64.917645,49.89986 64.327363,49.085017 63.7435,48.270173 63.403445,46.890712 63.069809,45.511249 62.75542,43.304113 h 0.346469 q -0.314389,2.207136 -0.654442,3.586599 -0.333636,1.379461 -0.923918,2.194305 -0.583865,0.814843 -1.648937,1.289635 -1.065071,0.481206 -2.835914,0.853341 V 50.88794 q 1.770843,0.372133 2.835914,0.853339 1.065072,0.474792 1.648937,1.289637 0.590282,0.814845 0.923918,2.194306 0.340053,1.37946 0.654442,3.586599 H 62.75542 m 2.380371,-19.094307 -0.346469,-1.738763 q -0.27589,-1.411541 -0.692938,-2.155809 -0.417046,-0.744268 -1.167729,-1.116401 -0.750684,-0.378549 -2.021072,-0.660858 l -0.968831,-0.218152 v -0.692938 l 0.968831,-0.218152 q 1.270388,-0.295142 2.021072,-0.667275 0.750683,-0.365719 1.167729,-1.109984 0.417048,-0.744268 0.692938,-2.155809 l 0.346469,-1.738762 h 0.660859 l 0.340053,1.738762 q 0.282309,1.411541 0.705771,2.155809 0.423463,0.744265 1.167731,1.109984 0.744266,0.372133 2.014653,0.667275 l 0.968831,0.218152 v 0.692938 l -0.968831,0.218152 q -1.270387,0.282309 -2.014653,0.660858 -0.744268,0.372133 -1.167731,1.116401 -0.423462,0.744268 -0.705771,2.155809 l -0.340053,1.738763 h -0.660859 m 0.12833,-0.468376 q 0.31439,-1.822172 0.654442,-2.867994 0.34647,-1.052241 0.885422,-1.616857 0.538952,-0.564618 1.424374,-0.859758 0.885421,-0.295139 2.284131,-0.596698 V 33.6543 q -1.39871,-0.29514 -2.284131,-0.596696 -0.885422,-0.295139 -1.424374,-0.859758 -0.538952,-0.564615 -0.885422,-1.623273 -0.340052,-1.058655 -0.654442,-2.85516 h 0.404216 q -0.314389,1.796505 -0.654442,2.85516 -0.346469,1.058658 -0.885422,1.623273 -0.545368,0.564619 -1.424373,0.859758 -0.885422,0.301556 -2.284132,0.596696 v -0.346469 q 1.39871,0.301559 2.284132,0.596698 0.879005,0.29514 1.424373,0.859758 0.538953,0.564616 0.885422,1.616857 0.340053,1.045822 0.654442,2.867994 h -0.404216 m 14.75061,19.594763 q 0.423462,-3.35562 0.834092,-5.697495 0.404215,-2.341875 0.955998,-3.900988 0.545368,-1.559111 1.385877,-2.540775 0.834094,-0.988078 2.123729,-1.61044 1.28322,-0.615945 3.163136,-1.077905 1.879917,-0.461959 4.510516,-0.994494 v 0.404215 q -2.630599,-0.532538 -4.510516,-0.994497 -1.879916,-0.461959 -3.163136,-1.077904 -1.289635,-0.615946 -2.123729,-1.604024 -0.840509,-0.988078 -1.385877,-2.547191 -0.551783,-1.559111 -0.955998,-3.900986 -0.41063,-2.341878 -0.834092,-5.69108 h 0.378549 q -0.423462,3.349202 -0.827675,5.69108 -0.410632,2.341875 -0.956001,3.900986 -0.551783,1.559113 -1.385877,2.547191 -0.840508,0.988078 -2.123726,1.604024 -1.283221,0.615945 -3.156721,1.077904 -1.873502,0.461959 -4.516933,0.994497 v -0.404215 q 2.643431,0.532535 4.516933,0.994494 1.8735,0.46196 3.156721,1.077905 1.283218,0.622362 2.123726,1.61044 0.834094,0.981664 1.385877,2.540775 0.545369,1.559113 0.956001,3.900988 0.404213,2.341875 0.827675,5.697495 z"
       id="path1"
       style="fill:#000000;stroke-width:0.641609;fill-opacity:1" /></g></svg>
